<svg id="Layer_1" data-name="Layer 1" xmlns="http://www.w3.org/2000/svg" viewBox="0 0 256 256"><defs><style>.cls-1{fill:#33334d;}</style></defs><title>search</title><path class="cls-1" d="M167.05,116.46c0,1.65-.06,3.3-.18,5-.05.65-.51,4.22-.27,2.85s-.56,2.68-.73,3.41q-.6,2.64-1.42,5.24c-.41,1.28-.87,2.54-1.33,3.81-1,2.73-.3.66,0,.11-.28.6-.55,1.21-.86,1.8a76,76,0,0,1-5,8.54c-.53.77-2.42,3.08-.81,1.16-1,1.17-2,2.33-3,3.44-.89.95-1.82,1.88-2.76,2.78-.64.59-1.29,1.17-1.94,1.75-.2.19-2.28,1.95-1,.9s-.39.3-.56.42c-.71.49-1.42,1-2.14,1.49q-1.63,1.08-3.33,2.07c-1.32.77-2.69,1.45-4,2.15-.58.31-1.19.57-1.78.85,2.66-1.24-.09,0-.69.22a74.85,74.85,0,0,1-8.29,2.42c-.72.16-4.81.81-3.33.64,1.76-.21-.5,0-.71,0-.91.06-1.83.14-2.74.17a69.07,69.07,0,0,1-9.65-.3c2.63.25-.36-.08-1.36-.28-1.75-.34-3.49-.76-5.2-1.25-1.49-.42-3-.93-4.41-1.44-.62-.21-1.24-.46-1.85-.7.6.24,2.46,1.24,0-.08a90.39,90.39,0,0,1-8-4.51c-1.08-.73-2.16-1.47-3.19-2.27,2.35,1.82-.94-.92-1.48-1.41a71.79,71.79,0,0,1-6.74-7.1c1.61,1.92-.28-.39-.81-1.16-.87-1.26-1.7-2.56-2.49-3.88s-1.53-2.68-2.23-4.06c-.3-.6-.57-1.2-.87-1.8-1-2.06.77,2.07-.07-.09A71.85,71.85,0,0,1,69.05,129c-.38-1.55-.68-3.11-1-4.68-.34-1.74,0,.31,0,.57-.15-1.15-.25-2.31-.34-3.47a70.46,70.46,0,0,1,0-9.19c.06-.94.15-1.87.23-2.8,0-.2.38-2.44.09-.75s.13-.56.17-.74c.24-1.11.45-2.23.72-3.34a76.55,76.55,0,0,1,2.59-8.38c1-2.64-.72,1.14.6-1.32.84-1.56,1.59-3.16,2.48-4.69q1.17-2,2.46-3.9c.43-.63,3-3.93,1.18-1.71a73,73,0,0,1,6.26-6.66c.52-.48,3.53-3.08,2.45-2.21s1.66-1.19,2.16-1.54a89.4,89.4,0,0,1,8.5-4.88c2.48-1.31-1.4.36,1.26-.55,1.46-.51,2.91-1,4.39-1.48s3-.84,4.52-1.17q1-.21,2-.39c.3-.06,3.09-.45,1.35-.25-1.47.17,2.71-.18,3.45-.21q2.43-.1,4.86,0c1.37,0,2.74.17,4.11.27,2.39.18-2.29-.42,0,0,.89.15,1.77.31,2.65.49a75.39,75.39,0,0,1,9.57,2.78c2.71.93.63.26.07,0,.79.36,1.58.73,2.37,1.13,1.56.78,3.08,1.63,4.57,2.53s2.92,1.9,4.35,2.9c.17.11,1.85,1.45.56.41-1.45-1.17,1.53,1.37,1.49,1.33a80.73,80.73,0,0,1,6.8,7c1.12,1.27-.16-.27-.31-.47.67.87,1.3,1.77,1.91,2.68q1.29,1.9,2.46,3.9c.89,1.53,1.64,3.13,2.48,4.69.25.47,1.16,2.63.1.07.34.83.66,1.66,1,2.5a77.92,77.92,0,0,1,2.85,10.47c0,.18.46,2.44.17.74s.12,1.15.15,1.45c.2,2.11.28,4.22.3,6.34.08,7.84,6.84,15.37,15,15s15.09-6.59,15-15a82.41,82.41,0,0,0-53.3-76.64c-30.42-11.51-66.8-1-87.16,24.07-21.53,26.51-25.22,64.2-7.92,94A80.27,80.27,0,0,0,133.52,196c37.3-7.3,63.15-42.41,63.53-79.56.08-7.85-7-15.36-15-15C173.85,101.83,167.14,108.05,167.05,116.46Z"/><path class="cls-1" d="M216.17,193.08l-38.74-40c-6.55-6.78-19-7.08-25.45,0-6.69,7.29-7,18.23,0,25.46l38.73,40c6.56,6.78,18.95,7.08,25.46,0,6.68-7.28,7-18.22,0-25.46Z"/></svg>