<svg id="Layer_1" data-name="Layer 1" xmlns="http://www.w3.org/2000/svg" viewBox="0 0 128 128"><defs><style>.cls-1{fill:#f6f6f6;}.cls-2{fill:lime;}</style></defs><title>mine</title><path class="cls-1" d="M42.37,56.41l-.75,3.25c-2.1-1.56-4-.9-6.1,0-5.12,2.14-10.3,4.12-16,6.37l8,3.19c1.85.74,3.71,1.43,5.53,2.21,3.37,1.46,6.7,3.25,10.26.18l1.21,2.27c-.18.26-.24.45-.36.5C40,76.07,40,76.06,40,80.55q0,9.32,0,18.64c0,.76.06,1.53.11,2.59,6.55-2.6,12.89-5.07,19.18-7.67a2.42,2.42,0,0,0,1-1.83c.12-2,0-4.12,0-6.28h2.24a2.5,2.5,0,0,1,.26.71,71.21,71.21,0,0,1-.05,7.16,3.35,3.35,0,0,1-1.68,2.36c-7,2.9-14.14,5.68-21.26,8.41a3.78,3.78,0,0,1-2.44,0c-7-2.72-14-5.54-21.07-8.27a2.43,2.43,0,0,1-1.8-2.66c.05-8.92,0-17.84.1-26.76a3.23,3.23,0,0,1,1.64-2.39c6.9-2.85,13.83-5.64,20.84-8.19C38.53,55.8,40.35,56.34,42.37,56.41Z"/><path class="cls-1" d="M87,72.26c2.88,2.19,5.42.53,8-.52,4.64-1.86,9.3-3.68,14.55-5.75L89.22,58.07l-.39.67L88.24,56a13.06,13.06,0,0,1,3.5.24c7.06,2.68,14.09,5.43,21.06,8.31A3.25,3.25,0,0,1,114.4,67c.12,8.92,0,17.84.11,26.77a2.45,2.45,0,0,1-1.87,2.61c-7,2.74-14,5.56-21.08,8.26a4,4,0,0,1-2.67,0c-6.9-2.65-13.74-5.43-20.64-8.07C66.66,95.87,66,95,66.12,93.32c.14-2.29,0-4.59,0-7.06C75.64,85.43,82.57,80.89,87,72.26ZM111.87,68c-6.3,2.47-12.18,4.83-18.09,7.07a2.91,2.91,0,0,0-2.25,3.25c.14,7,0,14,.06,21,0,.74.09,1.49.14,2.43,6.53-2.58,12.8-5,19-7.58a2.06,2.06,0,0,0,1-1.56C111.89,84.58,111.87,76.54,111.87,68Z"/><path class="cls-1" d="M87.09,53.73c-.44-1.84-1.21-3.67-1.25-5.51-.14-7.32-.06-14.65-.06-22.36L80.34,28c-4,1.57-7.94,3.28-12,4.67-2,.71-3.09,1.67-2.67,3.9a11.78,11.78,0,0,1,0,2.08C54.82,39.23,47.19,44.43,43,54.33,40.74,54.17,40.17,53,40.2,51c.1-8.61.08-17.21,0-25.82a2.78,2.78,0,0,1,2.15-3.09c6.53-2.47,13-5.08,19.49-7.73a6.1,6.1,0,0,1,5,0q9.8,4,19.71,7.81A2.55,2.55,0,0,1,88.48,25c0,8.77,0,17.53,0,26.29A13,13,0,0,1,88,53.65ZM83.15,24c-.32-.31-.46-.53-.65-.61-5.68-2.26-11.35-4.54-17.08-6.7a4.19,4.19,0,0,0-2.67.18c-3.5,1.29-7,2.7-10.43,4.08-2.25.89-4.48,1.81-7.18,2.9,6.49,2.57,12.45,4.95,18.43,7.27a2.39,2.39,0,0,0,1.56,0C71.1,28.78,77.05,26.42,83.15,24Z"/><path class="cls-1" d="M44.55,96.74c.32-2.52-1.49-5.48,1.24-7.49C45.4,91.77,47.4,94.7,44.55,96.74Z"/><path class="cls-1" d="M80.38,40.28c.61-2.84-.82-5.58,1.27-8.24C82.79,35.67,82.37,39.16,80.38,40.28Z"/><path class="cls-1" d="M77.07,41.42c.14-2.52-1.3-5.21.74-7.33C77.78,36.6,78.86,39.26,77.07,41.42Z"/><path class="cls-1" d="M54.48,92.93c.07-2.51-1.07-5.2.84-7.44C55.28,88,56.81,90.76,54.48,92.93Z"/><path class="cls-1" d="M50.82,94.37c-.21-2.51-.91-5.08.46-7.4C51.67,89.5,52.37,92,50.82,94.37Z"/><path class="cls-1" d="M72.36,36.51v3.38c-.69-.5-1.56-.85-1.54-1.16a10.43,10.43,0,0,1,.72-2.56Z"/><path class="cls-1" d="M98.82,89.31c-.37,2.53,1.72,5.53-1.25,7.47C97.94,94.26,96.15,91.33,98.82,89.31Z"/><path class="cls-1" d="M108.34,85.55c.08,2.53,1.41,5.21-.72,7.37C107.54,90.39,106.61,87.77,108.34,85.55Z"/><path class="cls-1" d="M103.84,94.39c-.06-2.51-1.06-5.14.65-7.41C104.55,89.49,105.57,92.12,103.84,94.39Z"/><path class="cls-2" d="M84.37,62.54A19,19,0,0,1,65.22,81.6a19.09,19.09,0,1,1,.34-38.18A19,19,0,0,1,84.37,62.54ZM63.21,65.41c-2-2-3.58-3.65-5.15-5.34-1.85-2-3-.53-4.31.72s-2.11,2.34-.41,3.95q4,3.78,7.78,7.77c1.46,1.54,2.6,1.33,4-.1,4-4,7.94-8.06,12-12,1.66-1.61,1.29-2.79-.2-4.17s-2.51-2.77-4.46-.6C69.54,58.92,66.45,62,63.21,65.41Z"/></svg>